{"title":"Prometheus 2012 DVDRip XVID AC3 HQ Hive-CM8","uid":7622632,"size":2065690717,"categoryP":"video","categoryS":"movies","magnet":"?xt=urn:btih:62f55b1cc0918091f86e2b37ceae936f750184ef&amp;dn=Prometheus+2012+DVDRip+XVID+AC3+HQ+Hive-CM8&amp;tr=udp%3A%2F%2Ftracker.openbittorrent.com%3A80&amp;tr=udp%3A%2F%2Fopen.demonii.com%3A1337&amp;tr=udp%3A%2F%2Ftracker.coppersurfer.tk%3A6969&amp;tr=udp%3A%2F%2Fexodus.desync.com%3A6969","seeders":1,"leechers":0,"uploader":"neon","files":-1,"time":1347322678,"description":"A team of explorers discover a clue to the origins of mankind on Earth, leading them on a journey to the darkest corners of the universe. There, they must fight a terrifying battle to save the future of the human race\n \nNoomi Rapace ... Elizabeth Shaw\n Michael Fassbender ... David\n Charlize Theron ... Meredith Vickers\n Idris Elba ... Janek\n Guy Pearce ... Peter Weyland\n\nPrometheus.2012.DVDRip.XVID.AC3.HQ.Hive-CM8 Thx Hive\n CM8 Doing It Right The First Time\n \nSource: French Retail DVD-R\n thx winnie13\n \nNotes:\n \nTook more than a day for winnie to upload that dvd that early, thx again for that\n In the meanwhile some groups who knew the dvd will be out soonish, decided to waste your bandwith with cam audio dubbed to the french low avi that was out earlier\n that was not nice, just to get some hits for the sake of uploading. wrong tagging, misleading tagging. i dont know, what a waste\n \nI waited for the dvd to finish and made you a nice version from the source, if you want a quality rip here it is\n Also nobody mentioned so far the 10mins deleted scenes which are on the dvd, waiting to be watched\n they are included on my version as an additional avi, for you to enjoy too\n \nEncode:\n \nDVD had good quality, needed brightness,sharpness,contrast and rgb fixed, looks way better now. check the pics below\n There were 10 mins of deleted scenes on the disc, which are included now as a additional single file\n Made you some english subs for the hi\n \nall in all a great quality rip, and will do me till bluray date in around 2 weeks or so\n \nenjoy\n \nVideo: 720x304 @bitrate 1700 2pass\n Audio: English AC3 5.1 @448\n Sample: yes included\n Subs: yes english in srt /subs\n Bonus: sure, 10mins deleted scenes as additional single file\n &lt;a href=&quot; http://www.imdb.com/title/tt1446714/&quot; rel=&quot;nofollow&quot; target=&quot;_NEW&quot;&gt; http://www.imdb.com/title/tt1446714/&lt;/a&gt;\n \nGeneral\n Complete name: Prometheus.2012.DVDRip.XVID.AC3.HQ.Hive-CM8.avi\n Format: AVI\n Format/Info: Audio Video Interleave\n File size: 1.79 GiB\n Duration: 1h 58mn\n Overall bit rate: 2 157 Kbps\n Writing application: Nandub v1.0rc2\n Writing library: Nandub build 1853/release\n \nVideo\n ID: 0\n Format: MPEG-4 Visual\n Format profile: Advanced Simple@L5\n Format settings, BVOP: 2\n Format settings, QPel: Yes\n Format settings, GMC: No warppoints\n Format settings, Matrix: Default (H.263)\n Muxing mode: Packed bitstream\n Codec ID: XVID\n Codec ID/Hint: XviD\n Duration: 1h 58mn\n Bit rate: 1 700 Kbps\n Width: 720 pixels\n Height: 304 pixels\n Display aspect ratio: 2.35:1\n Frame rate: 25.000 fps\n Color space: YUV\n Chroma subsampling: 4:2:0\n Bit depth: 8 bits\n Scan type: Progressive\n Compression mode: Lossy\n Bits/(Pixel*Frame): 0.311\n Stream size: 1.41 GiB (79%)\n Writing library: XviD 1.2.1 (UTC 2008-12-04)\n \nAudio\n ID: 1\n Format: AC-3\n Format/Info: Audio Coding 3\n Mode extension: CM (complete main)\n Format settings, Endianness: Big\n Codec ID: 2000\n Duration: 1h 58mn\n Bit rate mode: Constant\n Bit rate: 448 Kbps\n Channel(s): 6 channels\n Channel positions: Front: L C R, Side: L R, LFE\n Sampling rate: 48.0 KHz\n Bit depth: 16 bits\n Compression mode: Lossy\n Stream size: 380 MiB (21%)\n Alignment: Split accross interleaves\n Interleave, duration: 40 ms (1.00 video frame)\n Interleave, preload duration: 500 ms\n &lt;a href=&quot;\nhttp://www.shotpix.com/images/02116241988715527371.png&quot; rel=&quot;nofollow&quot; target=&quot;_NEW&quot;&gt;\nhttp://www.shotpix.com/images/02116241988715527371.png&lt;/a&gt; &lt;a href=&quot;\nhttp://www.shotpix.com/images/97159928073934578355.png&quot; rel=&quot;nofollow&quot; target=&quot;_NEW&quot;&gt;\nhttp://www.shotpix.com/images/97159928073934578355.png&lt;/a&gt; &lt;a href=&quot;\nhttp://www.shotpix.com/images/76750312565798768541.png&quot; rel=&quot;nofollow&quot; target=&quot;_NEW&quot;&gt;\nhttp://www.shotpix.com/images/76750312565798768541.png&lt;/a&gt; &lt;a href=&quot;\nhttp://www.shotpix.com/images/42080474243084588201.png&quot; rel=&quot;nofollow&quot; target=&quot;_NEW&quot;&gt;\nhttp://www.shotpix.com/images/42080474243084588201.png&lt;/a&gt;\n &lt;a href=&quot;\nhttp://www.imdb.com/title/tt1446714/&quot; rel=&quot;nofollow&quot; target=&quot;_NEW&quot;&gt;\nhttp://www.imdb.com/title/tt1446714/&lt;/a&gt;","torrent":{"xt":"urn:btih:62f55b1cc0918091f86e2b37ceae936f750184ef","amp;dn":"Prometheus+2012+DVDRip+XVID+AC3+HQ+Hive-CM8","amp;tr":["udp%3A%2F%2Ftracker.openbittorrent.com%3A80","udp%3A%2F%2Fopen.demonii.com%3A1337","udp%3A%2F%2Ftracker.coppersurfer.tk%3A6969","udp%3A%2F%2Fexodus.desync.com%3A6969"],"infoHash":"62f55b1cc0918091f86e2b37ceae936f750184ef","infoHashBuffer":{"type":"Buffer","data":[98,245,91,28,192,145,128,145,248,110,43,55,206,174,147,111,117,1,132,239]},"announce":[],"urlList":[]}}